<svg id="Layer_1" height="512" viewBox="0 0 128 128" width="512" xmlns="http://www.w3.org/2000/svg" xmlns:xlink="http://www.w3.org/1999/xlink" data-name="Layer 1"><linearGradient id="linear-gradient" gradientUnits="userSpaceOnUse" x1="102.412" x2="27.328" y1="114.122" y2="39.037"><stop offset="0" stop-color="#4893ff"/><stop offset="1" stop-color="#00d980"/></linearGradient><path d="m103.327 111.379-21.204-36.919a32.468 32.468 0 0 0 -31.448-56.789 1.75 1.75 0 1 0 1.62 3.1 28.977 28.977 0 1 1 -15.582 25.7 28.713 28.713 0 0 1 5.846-17.454 1.75 1.75 0 0 0 -2.792-2.111 32.446 32.446 0 0 0 7.033 45.954l-22.127 38.519a1.75 1.75 0 0 0 2.442 2.356l10.874-6.77 3.279 6.111a1.75 1.75 0 0 0 1.517.923 1.775 1.775 0 0 0 1.543-.879l16.288-28.36a1.75 1.75 0 1 0 -3.035-1.742l-14.719 25.628-2.671-4.978a1.75 1.75 0 0 0 -2.467-.658l-6.549 4.077 18.573-32.339a32.235 32.235 0 0 0 14.271 4.152l19.653 34.219a1.751 1.751 0 0 0 1.518.881h.025a1.75 1.75 0 0 0 1.517-.923l3.279-6.111 10.874 6.77a1.75 1.75 0 0 0 2.442-2.356zm-13.051-8.37a1.75 1.75 0 0 0 -2.467.658l-2.671 4.978-17.112-29.794a32.217 32.217 0 0 0 10.987-2.779l17.812 31.014zm-45.89-78.745a1.75 1.75 0 0 1 .191-2.468c.233-.2.469-.4.708-.589a1.75 1.75 0 1 1 2.2 2.719q-.321.261-.635.528a1.75 1.75 0 0 1 -2.467-.19zm38.8 34.426a21.344 21.344 0 1 0 -4.386 4.623 1.75 1.75 0 0 1 2.152 2.76 24.6 24.6 0 0 1 -15.266 5.242 24.837 24.837 0 1 1 20.37-10.615 1.75 1.75 0 1 1 -2.868-2.006zm-5.06-13.483-4.951 4.827 1.168 6.815a1.749 1.749 0 0 1 -2.539 1.845l-6.12-3.217-6.12 3.217a1.75 1.75 0 0 1 -1.629-3.1l6.935-3.646a1.753 1.753 0 0 1 1.629 0l3.8 2-.725-4.227a1.75 1.75 0 0 1 .5-1.549l3.071-2.993-4.245-.62a1.747 1.747 0 0 1 -1.318-.957l-1.9-3.846-1.9 3.846a1.747 1.747 0 0 1 -1.318.957l-4.244.617 3.08 2.993a1.75 1.75 0 0 1 -2.443 2.506l-5.61-5.469a1.749 1.749 0 0 1 .97-2.984l6.842-.994 3.06-6.2a1.75 1.75 0 0 1 3.139 0l3.06 6.2 6.842.994a1.749 1.749 0 0 1 .97 2.984z" fill="url(#linear-gradient)"/></svg>